# Blender 4.2.17 LTS
# www.blender.org
mtllib lab3.mtl
o Cube
v 1.000000 0.042843 -1.000000
v 1.000000 -1.000000 -1.000000
v 1.000000 0.042843 1.000000
v 1.000000 -1.000000 1.000000
v -1.000000 0.042843 -1.000000
v -1.000000 -1.000000 -1.000000
v -1.000000 0.042843 1.000000
v -1.000000 -1.000000 1.000000
v -0.961857 0.788953 0.996675
v -0.961857 0.057364 0.996675
v 0.973219 0.791853 0.986788
v 0.973219 0.054465 0.986788
v -0.995644 0.788953 -1.602215
v -0.995644 0.057364 -1.602215
v 0.939164 0.791853 -1.632702
v 0.939164 0.054465 -1.632702
v 0.340066 0.139859 -3.698446
v -0.293707 0.139859 -3.698446
v 0.340066 0.130441 -1.624197
v -0.293707 0.130441 -1.624197
v 0.340066 0.790684 -3.695491
v -0.293707 0.790684 -3.695491
v 0.340066 0.781266 -1.621243
v -0.293707 0.781266 -1.621243
v -0.193442 -2.359598 -3.321064
v -0.080237 0.132696 -3.279789
v 0.140446 -2.357482 -3.308558
v 6.794303 -0.313975 -5.007448
v 0.253650 0.134812 -3.267283
v -0.178373 -2.359598 -3.723378
v -0.065169 0.132696 -3.682103
v 0.155514 -2.357482 -3.710872
v 0.268718 0.134812 -3.669599
vn -0.0000 1.0000 -0.0000
vn -0.0000 -0.0000 1.0000
vn -1.0000 -0.0000 -0.0000
vn -0.0000 -1.0000 -0.0000
vn 1.0000 -0.0000 -0.0000
vn -0.0000 -0.0000 -1.0000
vn 0.0051 -0.0000 1.0000
vn 0.9999 -0.0000 -0.0130
vn -0.0158 -0.0000 -0.9999
vn -0.9999 -0.0000 0.0130
vn -0.0015 1.0000 -0.0000
vn -0.0015 -1.0000 -0.0000
vn -0.0000 -0.0045 1.0000
vn -0.0000 -1.0000 -0.0045
vn -0.0000 1.0000 0.0045
vn -0.0000 0.0045 -1.0000
vn 0.0373 0.0149 -0.9992
vn 0.9982 -0.0460 0.0374
vn -0.0373 -0.0149 0.9992
vn 0.0063 -1.0000 0.0002
vn -0.0063 1.0000 -0.0002
vn -0.9982 0.0460 -0.0374
vt 0.875000 0.500000
vt 0.505355 0.750000
vt 0.505355 0.500000
vt 0.375000 1.000000
vt 0.375000 0.750000
vt 0.505355 0.000000
vt 0.375000 0.250000
vt 0.375000 0.000000
vt 0.375000 0.500000
vt 0.125000 0.750000
vt 0.125000 0.500000
vt 0.505355 0.250000
vt 0.375983 0.045715
vt 0.625000 0.250000
vt 0.334434 0.459229
vt 0.665567 0.459229
vt 0.335212 0.752865
vt 0.664787 0.752865
vt 0.375983 0.998837
vt 0.125983 0.704284
vt 0.874017 0.704285
vt 0.567256 0.000000
vt 0.450944 0.250000
vt 0.450944 0.000000
vt 0.375000 0.250000
vt 0.567016 0.500000
vt 0.567016 0.575944
vt 0.375000 0.692256
vt 0.375000 0.575944
vt 0.567016 0.807744
vt 0.375000 0.924056
vt 0.375000 0.807744
vt 0.299056 0.500000
vt 0.182744 0.750000
vt 0.182744 0.500000
vt 0.817016 0.500000
vt 0.625000 0.750000
vt 0.625000 0.500000
vt 0.625000 0.750000
vt 0.875000 0.750000
vt 0.505355 1.000000
vt 0.624017 0.045715
vt 0.624017 0.998837
vt 0.567256 0.250000
vt 0.567016 0.250000
vt 0.567016 0.692256
vt 0.567016 0.924056
vt 0.299056 0.750000
vt 0.817016 0.750000
vt 0.625000 0.000000
vt 0.625000 1.000000
s 0
usemtl Material
f 5/1/1 3/2/1 1/3/1
f 3/2/2 8/4/2 4/5/2
f 7/6/3 6/7/3 8/8/3
f 2/9/4 8/10/4 6/11/4
f 1/3/5 4/5/5 2/9/5
f 5/12/6 2/9/6 6/7/6
f 9/13/7 12/14/7 11/7/7
f 12/14/8 15/15/8 11/7/8
f 16/16/9 13/17/9 15/15/9
f 14/18/10 9/19/10 13/17/10
f 15/15/11 9/20/11 11/11/11
f 16/16/12 10/21/12 14/18/12
f 19/22/13 24/23/13 20/24/13
f 19/25/5 21/26/5 23/9/5
f 18/27/14 19/28/14 20/29/14
f 21/30/15 24/31/15 23/32/15
f 18/33/16 21/34/16 17/35/16
f 22/36/3 20/37/3 24/38/3
f 32/8/17 31/14/17 33/7/17
f 27/14/18 33/9/18 29/7/18
f 26/38/19 27/5/19 29/9/19
f 25/39/20 32/4/20 27/5/20
f 31/9/21 29/10/21 33/11/21
f 25/38/22 31/40/22 30/39/22
f 5/1/1 7/40/1 3/2/1
f 3/2/2 7/41/2 8/4/2
f 7/6/3 5/12/3 6/7/3
f 2/9/4 4/5/4 8/10/4
f 1/3/5 3/2/5 4/5/5
f 5/12/6 1/3/6 2/9/6
f 9/13/7 10/42/7 12/14/7
f 12/14/8 16/16/8 15/15/8
f 16/16/9 14/18/9 13/17/9
f 14/18/10 10/43/10 9/19/10
f 15/15/11 13/17/11 9/20/11
f 16/16/12 12/1/12 10/21/12
f 19/22/13 23/44/13 24/23/13
f 19/25/5 17/45/5 21/26/5
f 18/27/14 17/46/14 19/28/14
f 21/30/15 22/47/15 24/31/15
f 18/33/16 22/48/16 21/34/16
f 22/36/3 18/49/3 20/37/3
f 32/8/17 30/50/17 31/14/17
f 27/14/18 32/38/18 33/9/18
f 26/38/19 25/39/19 27/5/19
f 25/39/20 30/51/20 32/4/20
f 31/9/21 26/5/21 29/10/21
f 25/38/22 26/1/22 31/40/22
